<?xml version="1.0" encoding="utf-8"?>
<!-- Svg Vector Icons : http://www.onlinewebfonts.com/icon -->
<!DOCTYPE svg PUBLIC "-//W3C//DTD SVG 1.1//EN" "http://www.w3.org/Graphics/SVG/1.1/DTD/svg11.dtd">
<svg version="1.1" xmlns="http://www.w3.org/2000/svg" xmlns:xlink="http://www.w3.org/1999/xlink" x="0px" y="0px" viewBox="0 0 1000 1000" enable-background="new 0 0 1000 1000" xml:space="preserve">
<metadata> Svg Vector Icons : http://www.onlinewebfonts.com/icon </metadata>
<g><path d="M500,10C229.4,10,10,229.4,10,500c0,270.6,219.4,490,490,490c270.6,0,490-219.4,490-490C990,229.4,770.6,10,500,10z M499.8,137.5c35.1,0,63.5,28.4,63.5,63.5c0,35.1-28.4,63.5-63.5,63.5c-35.1,0-63.5-28.4-63.5-63.5C436.3,165.9,464.7,137.5,499.8,137.5z M563.5,800.8c0,34.1-27.6,61.7-61.7,61.7c-34.1,0-61.7-27.6-61.7-61.7c0-1.6,0.1-3.1,0.2-4.6l0-419.6h0c0,0,0-0.1,0-0.1c0-34.1,27.6-61.7,61.7-61.7c34.1,0,61.7,27.6,61.7,61.7c0,2.3-0.1,4.6-0.4,6.8v412.8C563.4,797.7,563.5,799.2,563.5,800.8z"/></g>
</svg>